<svg width="280" height="280" xmlns="http://www.w3.org/2000/svg" xmlns:svg="http://www.w3.org/2000/svg">
 <defs>
  <style>.a{fill:#ececeb;}.b{fill:#fff;}.c{fill:#a3a3a3;}.d{fill:#c4c4c4;}.e{fill:#dddddc;}.f{fill:#8f8f8f;}.g{fill:#cececd;}.h{fill:#9da1a2;}.i,.l{opacity:0.1;}.i,.l,.m,.o,.r{isolation:isolate;}.j{fill:#858686;}.k{fill:#4f5253;}.ad,.l,.s{fill:#2b2b2b;}.m{opacity:0.15;}.n{fill:#737373;}.o{opacity:0.2;}.p{fill:#6f7173;}.q{fill:#474747;}.r{opacity:0.04;}.s{opacity:0.1;}.t{fill:#446125;}.u{fill:#3f8f6f;}.v{fill:#54b08b;}.w{fill:#35785d;}.x{fill:#b8c745;}.y{fill:#e8f078;}.z{fill:#5a753d;}.aa{fill:#709d53;}.ab{fill:#99c26d;}.ac{fill:#738d57;}.ae{fill:#dfbda5;}.af{fill:#c3987b;}.ag,.ai{fill:#8b6651;}.ah{fill:#e8cab6;}.ai{stroke:#8b6651;stroke-miterlimit:10;stroke-width:4px;}</style>
 </defs>
 <title>enfj-a</title>
 <g class="layer">
  <title>Layer 1</title>
  <polygon class="s" id="svg_310" points="180.30999755859375,266.5 162.3900146484375,263.1499938964844 90.08999633789062,251.1400146484375 22.19000244140625,263 4,268.739990234375 119.94000244140625,276.5 180.30999755859375,266.5 "/>
  <polygon class="t" id="svg_311" points="146.20001220703125,241.69000244140625 143.40997314453125,166.25 139.1300048828125,140.6699981689453 99.91000366210938,124.71000671386719 49.3599853515625,152.50999450683594 30.8699951171875,251.1400146484375 48.040008544921875,266.0899963378906 146.8900146484375,266.3500061035156 162.41998291015625,263 146.20001220703125,241.69000244140625 "/>
  <polygon class="u" id="svg_312" points="131.17999267578125,230.20001220703125 109.08999633789062,239.20001220703125 112.3599853515625,255.44000244140625 123.72998046875,255.44000244140625 131.17999267578125,248.989990234375 131.17999267578125,230.20001220703125 "/>
  <polygon class="v" id="svg_313" points="131.17999267578125,248.989990234375 145.30999755859375,263 131.6500244140625,266.0899963378906 112.02999877929688,263 112.3599853515625,255.44000244140625 131.17999267578125,248.989990234375 "/>
  <polygon class="u" id="svg_314" points="145.30999755859375,269.260009765625 112.02999877929688,269.260009765625 112.02999877929688,263 140.0999755859375,263 151.1300048828125,258.8399963378906 145.30999755859375,269.260009765625 "/>
  <polygon class="w" id="svg_315" points="131.17999267578125,230.20001220703125 110.92999267578125,247.5 109.08999633789062,239.20001220703125 120.1300048828125,230.20001220703125 131.17999267578125,230.20001220703125 "/>
  <polygon class="x" id="svg_316" points="52.760009765625,77.42999267578125 29.8599853515625,93.19999694824219 28.3699951171875,111.94000244140625 44.040008544921875,139.77999877929688 151.80999755859375,130.16000366210938 148.5,88.33000183105469 137.07000732421875,81.39999389648438 52.760009765625,77.42999267578125 "/>
  <polygon class="y" id="svg_317" points="137.07000732421875,81.39999389648438 52.760009765625,77.42999267578125 29.8599853515625,93.19999694824219 28.3699951171875,111.94000244140625 41.529998779296875,102.8800048828125 139.1300048828125,94.77999877929688 148.5,88.33000183105469 137.07000732421875,81.39999389648438 "/>
  <polygon class="u" id="svg_318" points="80.010009765625,240.26998901367188 76.54000854492188,254.07998657226562 65.17001342773438,255.44000244140625 54.959991455078125,251.1400146484375 56.70001220703125,235.1400146484375 80.010009765625,240.26998901367188 "/>
  <polygon class="v" id="svg_319" points="54.959991455078125,251.1400146484375 48.040008544921875,266.0899963378906 77.010009765625,266.0899963378906 76.54000854492188,254.07998657226562 54.959991455078125,251.1400146484375 "/>
  <polygon class="u" id="svg_320" points="77.010009765625,271.2900085449219 48.040008544921875,271.2900085449219 48.040008544921875,266.0899963378906 62.519989013671875,261.6400146484375 77.010009765625,266.0899963378906 77.010009765625,271.2900085449219 "/>
  <polygon class="w" id="svg_321" points="56.70001220703125,235.1400146484375 78.19000244140625,247.5 80.010009765625,240.26998901367188 72.8599853515625,233.94000244140625 56.70001220703125,235.1400146484375 "/>
  <polygon class="z" id="svg_322" points="96.6400146484375,177.80999755859375 80.010009765625,230.20001220703125 97.42999267578125,244.1099853515625 131.17999267578125,230.20001220703125 131.08001708984375,179.17999267578125 117.8800048828125,173.30999755859375 96.6400146484375,177.80999755859375 "/>
  <polygon class="aa" id="svg_323" points="61.45001220703125,190.17001342773438 56.70001220703125,235.1400146484375 97.42999267578125,244.1099853515625 96.6400146484375,177.80999755859375 61.45001220703125,190.17001342773438 "/>
  <polygon class="z" id="svg_324" points="131.08001708984375,110.44999694824219 139.1300048828125,94.77999877929688 156.16998291015625,132.86000061035156 131.17999267578125,161.6699981689453 127.30999755859375,144.41000366210938 131.08001708984375,110.44999694824219 "/>
  <polygon class="z" id="svg_325" points="59.459991455078125,96.3800048828125 85.64999389648438,110.11000061035156 109.42999267578125,128.44000244140625 96.6400146484375,177.80999755859375 62.290008544921875,177.80999755859375 62.290008544921875,166.25 48.040008544921875,129.47000122070312 59.459991455078125,96.3800048828125 "/>
  <polygon class="aa" id="svg_326" points="99.91000366210938,124.71000671386719 96.6199951171875,166.25 96.6400146484375,177.80999755859375 131.08001708984375,177.80999755859375 131.17999267578125,161.6699981689453 139.1300048828125,94.77999877929688 122.33001708984375,93.19999694824219 121.72998046875,100.19000244140625 121.72998046875,100.19000244140625 114.58999633789062,99.85000610351562 110.83999633789062,116 99.91000366210938,124.71000671386719 "/>
  <polygon class="z" id="svg_327" points="49.3599853515625,152.50999450683594 41.529998779296875,102.8800048828125 22.19000244140625,263 33.589996337890625,255.51998901367188 39.44000244140625,244.95999145507812 49.3599853515625,152.50999450683594 "/>
  <polygon class="aa" id="svg_328" points="48.040008544921875,266.0899963378906 22.19000244140625,263 39.44000244140625,244.95999145507812 48.040008544921875,266.0899963378906 "/>
  <polygon class="ab" id="svg_329" points="62.290008544921875,177.80999755859375 131.08001708984375,177.80999755859375 131.08001708984375,190.73001098632812 61.45001220703125,190.17001342773438 62.290008544921875,177.80999755859375 "/>
  <polygon class="ac" id="svg_330" points="38.920013427734375,168.0800018310547 41.529998779296875,102.8800048828125 62.1099853515625,94.83999633789062 67.97000122070312,93.97999572753906 61.3900146484375,117.44000244140625 63.75,145.35000610351562 38.920013427734375,168.0800018310547 "/>
  <polygon class="w" id="svg_331" points="99.60000610351562,118.44999694824219 109.08999633789062,108.61000061035156 114.58999633789062,99.85000610351562 124.5999755859375,101.30999755859375 123.719970703125,116.08000183105469 99.91000366210938,124.71000671386719 94.260009765625,119.66000366210938 99.60000610351562,118.44999694824219 "/>
  <polygon class="v" id="svg_332" points="99.60000610351562,118.44999694824219 99.91000366210938,124.71000671386719 61.3900146484375,117.44000244140625 59.459991455078125,96.3800048828125 67.97000122070312,93.97999572753906 77.6199951171875,104.44999694824219 99.60000610351562,118.44999694824219 "/>
  <polygon class="ad" id="svg_333" points="65.41000366210938,94.77999877929688 63.20001220703125,57.55000305175781 58.589996337890625,47.980003356933594 49.8599853515625,52 48.040008544921875,100.33999633789062 65.41000366210938,94.77999877929688 "/>
  <polygon class="ad" id="svg_334" points="136.5,47.480003356933594 139.1300048828125,94.77999877929688 125.260009765625,93.57000732421875 123.03997802734375,42.86000061035156 136.5,47.480003356933594 "/>
  <polygon class="ae" id="svg_335" points="124.5999755859375,101.30999755859375 80.010009765625,99.21000671386719 67.3800048828125,90.19000244140625 61.3900146484375,21.720001220703125 131.0999755859375,18.720001220703125 124.5999755859375,101.30999755859375 "/>
  <polygon class="af" id="svg_336" points="117.8800048828125,100.99000549316406 72.260009765625,95 66.77999877929688,28.389999389648438 58.589996337890625,15.349998474121094 65.75,98.72000122070312 67.3800048828125,109.08999633789062 99.60000610351562,118.44999694824219 116.3699951171875,110.21000671386719 117.8800048828125,100.99000549316406 "/>
  <polygon class="ag" id="svg_337" points="92.67999267578125,73.17999267578125 99.22000122070312,77.66000366210938 105.760009765625,73.17999267578125 92.67999267578125,73.17999267578125 "/>
  <polygon class="af" id="svg_338" points="72.23001098632812,56.019996643066406 85.91000366210938,60.220001220703125 92.67999267578125,73.17999267578125 96.54000854492188,55.30999755859375 77.05999755859375,50.480003356933594 72.23001098632812,56.019996643066406 "/>
  <polygon class="af" id="svg_339" points="105.760009765625,73.17999267578125 115.489990234375,60.220001220703125 126.21002197265625,56.019996643066406 121.3900146484375,52.980003356933594 112.54000854492188,52 101.89999389648438,55.30999755859375 101.89999389648438,65.22000122070312 105.760009765625,73.17999267578125 "/>
  <polygon class="ah" id="svg_340" points="105.760009765625,73.17999267578125 99.22000122070312,74.82000732421875 92.67999267578125,73.17999267578125 96.54000854492188,55.30999755859375 101.89999389648438,55.30999755859375 105.760009765625,73.17999267578125 "/>
  <polygon class="q" id="svg_341" points="101.89999389648438,55.30999755859375 121.3900146484375,52.980003356933594 126.21002197265625,56.019996643066406 121.3900146484375,47.980003356933594 101.89999389648438,55.30999755859375 "/>
  <polygon class="q" id="svg_342" points="96.54000854492188,55.30999755859375 77.05999755859375,52.980003356933594 72.23001098632812,56.019996643066406 77.05999755859375,47.980003356933594 96.54000854492188,55.30999755859375 "/>
  <polygon class="ag" id="svg_343" points="101.45001220703125,113.16000366210938 117.8800048828125,100.99000549316406 65.75,98.72000122070312 101.45001220703125,113.16000366210938 "/>
  <polygon class="k" id="svg_344" points="49.8599853515625,52 51.25,17.290000915527344 65.75,13.669998168945312 77.1300048828125,5 116,5 124.5999755859375,15.349998474121094 139.42999267578125,21.720001220703125 136.5,47.480003356933594 128.72998046875,48.83000183105469 130.52001953125,24.639999389648438 100.44000244140625,34.48999786376953 67.89999389648438,19.849998474121094 62.399993896484375,61.83000183105469 49.8599853515625,52 "/>
  <polygon class="p" id="svg_345" points="100.44000244140625,34.48999786376953 77.1300048828125,5 51.25,17.290000915527344 66.77999877929688,28.389999389648438 100.44000244140625,34.48999786376953 "/>
  <polygon class="af" id="svg_346" points="70.8900146484375,78.27999877929688 126.15997314453125,81.49000549316406 124.5999755859375,101.30999755859375 72.23001098632812,99 70.8900146484375,78.27999877929688 "/>
  <polygon class="q" id="svg_347" points="116,5 100.44000244140625,34.48999786376953 130.260009765625,28.169998168945312 139.42999267578125,21.720001220703125 116,5 "/>
  <line class="ai" id="svg_348" x1="84.94" x2="106.72" y1="88.65" y2="88.65"/>
  <polygon class="ag" id="svg_349" points="70.8900146484375,78.27999877929688 63.75,75.41999816894531 65.75,98.72000122070312 72.23001098632812,99 70.8900146484375,78.27999877929688 "/>
  <circle class="ad" cx="114.58" cy="60.22" id="svg_350" r="3.31"/>
  <circle class="ad" cx="84.87" cy="60.22" id="svg_351" r="3.31"/>
  <polygon class="v" id="svg_352" points="63.75,145.35000610351562 38.920013427734375,168.0800018310547 79.1300048828125,183.97000122070312 88.73001098632812,160.2899932861328 63.75,145.35000610351562 "/>
  <path class="af" d="m88.73,160.29l10.41,-2.65l5,8.06l-9.59,-0.61l-5.82,-4.8z" id="svg_353"/>
  <path class="ae" d="m88.73,160.29l15.41,5.41l-3.47,10.3l-11.43,13l-10.11,-5l9.6,-23.68l0,-0.03z" id="svg_354"/>
  <path class="af" d="m104.14,165.7l6,5.21l-7.75,17.45l-13.17,0.61l14.9,-23.27l0.02,0z" id="svg_355"/>
  <path class="v" d="m156.18,132.86l22.86,9.8l-2,10.21l-7.86,12l-38,-3.24l25,-28.77z" id="svg_356"/>
  <path class="c" d="m165.67,190.43l62.87,-156.16l11.23,4.49l-62.87,156.24l-11.23,-4.57z" id="svg_357"/>
  <path class="a" d="m178.22,194.21a7,7 0 1 0 -9.08,3.88a7,7 0 0 0 9.08,-3.88z" id="svg_358"/>
  <path class="e" d="m223.64,29.67l13.68,-1.94l8.37,11.44l-23.68,49l-21.13,62.36l-22.25,-9l45.01,-111.86z" id="svg_359"/>
  <path class="h" d="m200.88,150.52l-10.82,-4.39l47.26,-118.4l8.57,10.93l-45,111.86l-0.01,0z" id="svg_360"/>
  <path class="a" d="m215.17,147.87l4.49,9.08l-9.08,5.21l-4.9,-8.78l-11.23,-4.49l-6.63,2.86l-2.82,-6.75l-10.21,-4.08l-8.79,3.78l-5,-9.7l10.72,-4.6l1.94,5.72l12.76,5.21l6.73,-2.86l2.86,6.63l13.78,5.51l5.38,-2.74z" id="svg_361"/>
  <path class="o" d="m175.06,167l8.37,11.44l3.06,-7.66l-3.88,-3.78l-7.55,0z" id="svg_362"/>
  <path class="af" d="m179,142.66l25.31,10.21l-11,18.47l-24.19,-6.43l9.88,-22.25z" id="svg_363"/>
  <path class="ae" d="m192.92,173.18l-17.86,-6.18l9.94,-22l19.39,7.86l-11.43,20.31l-0.04,0.01z" id="svg_364"/>
  <path class="ah" d="m173.63,154.81l6.94,0l-3.06,6.74l7,2.14l8.78,-15.31l-14.29,-5.72l-5.37,12.15z" id="svg_365"/>
  <path class="af" d="m204.35,152.87l-17.86,17.86l6.43,2.45l11.43,-20.31z" id="svg_366"/>
  <path class="ag" d="m179,142.66l23.17,14l2.14,-3.78l-25.31,-10.22z" id="svg_367"/>
 </g>
</svg>